<?xml version="1.0" encoding="UTF-8" standalone="no"?>
<svg
   width="69.10701mm"
   height="25.024002mm"
   viewBox="0 0 69.107009 25.024001"
   version="1.1"
   id="svg864"
   xmlns="http://www.w3.org/2000/svg"
   xmlns:svg="http://www.w3.org/2000/svg"
   xmlns:rdf="http://www.w3.org/1999/02/22-rdf-syntax-ns#"
   xmlns:cc="http://creativecommons.org/ns#"
   xmlns:dc="http://purl.org/dc/elements/1.1/">
  <metadata
     id="metadata9">
    <rdf:RDF>
      <cc:Work
         rdf:about="">
        <dc:format>image/svg+xml</dc:format>
        <dc:type
           rdf:resource="http://purl.org/dc/dcmitype/StillImage" />
      </cc:Work>
    </rdf:RDF>
  </metadata>
  <defs
     id="defs7" />
  <path
     id="path1108"
     style="opacity:0.99;fill:#ffa600;fill-opacity:1;stroke-width:0.378873"
     d="m 10.149068,6.8828024 c -1.7721649,0 -3.2090787,0.8193057 -3.2090787,1.8303209 0,0.7586029 0.8091426,1.4094757 1.9616511,1.6871647 0.3629794,0.387723 0.6332072,2.721281 0.7824528,4.689981 h -4.403267 v 1.013953 h 9.7360908 v -1.013953 h -4.403266 c 0.149251,-1.9687 0.419866,-4.302258 0.782846,-4.689981 1.152509,-0.277689 1.961258,-0.9285618 1.961258,-1.6871647 0,-1.0110152 -1.436525,-1.8303209 -3.208687,-1.8303209 z" />
  <path
     id="path1112"
     style="opacity:0.99;fill:#ffffff;fill-opacity:1;stroke:none;stroke-width:0.757747"
     d="M 10.137631,5.0299983 C 7.315136,5.0338142 5.030006,6.4789458 5.0299998,8.2599809 a 5.1183864,4.6884697 0 0 0 0,0.00305 5.1183864,4.6884697 0 0 0 4.1910893,4.6071611 C 9.1980031,12.68337 9.1748407,12.496087 9.1497094,12.32161 9.0825348,11.855249 9.0079818,11.441029 8.9292497,11.126235 8.8533749,10.822858 8.7522482,10.619701 8.7289035,10.587518 7.1492548,10.22533 6.0991689,9.3015383 6.0991689,8.2669716 c 0,-0.00229 0,-0.00534 0,-0.00786 2.022e-4,-0.042509 0.00214,-0.084628 0.00595,-0.1265953 2.014e-4,-0.00305 8.394e-4,-0.00687 0.00122,-0.00985 0.00366,-0.038617 0.00848,-0.077042 0.014981,-0.1151554 9.922e-4,-0.00611 0.0029,-0.012058 0.00397,-0.018163 0.00649,-0.03564 0.013569,-0.071357 0.022483,-0.1064857 1.007e-4,-4.045e-4 4.037e-4,-7.632e-4 4.037e-4,-7.632e-4 0.02072,-0.08137 0.047912,-0.1612358 0.081241,-0.2397817 0.00122,-0.00305 0.00336,-0.00611 0.00473,-0.00985 0.015607,-0.036251 0.031893,-0.072196 0.050087,-0.1076686 0.00122,-0.00229 0.0029,-0.00458 0.00397,-0.00687 0.018881,-0.03648 0.038838,-0.072349 0.060337,-0.1080578 C 6.4397873,7.2583986 6.5541849,7.113945 6.6896834,6.9780312 6.7235226,6.94407 6.7585904,6.9107193 6.7949847,6.877857 c 0.036052,-0.032588 0.07354,-0.064793 0.1120027,-0.096229 0.010723,-0.00878 0.022224,-0.017019 0.033129,-0.025643 0.028741,-0.022819 0.057162,-0.045638 0.087158,-0.067846 0.0071,-0.00534 0.014966,-0.010226 0.022086,-0.015416 0.034785,-0.025337 0.069708,-0.050522 0.1060888,-0.074944 0.043577,-0.029229 0.088299,-0.05762 0.134089,-0.085575 0.045493,-0.02778 0.092002,-0.055178 0.139612,-0.081637 0.012799,-0.00687 0.02649,-0.013508 0.039433,-0.020529 0.035312,-0.019079 0.070479,-0.038388 0.1068779,-0.05678 0.022369,-0.011295 0.045455,-0.021751 0.068228,-0.03274 0.027986,-0.013508 0.055819,-0.027474 0.084398,-0.040601 0.040044,-0.018316 0.081103,-0.035869 0.122259,-0.053269 0.011776,-0.00458 0.023239,-0.010074 0.035098,-0.014958 0.041746,-0.017248 0.08456,-0.033732 0.1273853,-0.050064 0.012577,-0.00458 0.024414,-0.00992 0.037067,-0.014577 0.027192,-0.010074 0.055231,-0.019461 0.082821,-0.029153 0.029665,-0.010455 0.058986,-0.02114 0.089129,-0.031137 0.00672,-0.00229 0.013752,-0.00458 0.020506,-0.00611 0.050278,-0.016484 0.1010954,-0.032511 0.1526242,-0.047698 0.023361,-0.00687 0.047363,-0.01305 0.07099,-0.01969 0.036167,-0.010074 0.07212,-0.020453 0.1088493,-0.029993 0.011448,-0.00305 0.023178,-0.00534 0.034701,-0.00824 C 8.6590089,5.962588 8.7085329,5.949996 8.7589892,5.938777 8.8202342,5.925116 8.8821518,5.912447 8.944742,5.900542 9.008154,5.888484 9.0720952,5.877265 9.1368055,5.867039 9.1897925,5.858719 9.2435194,5.851547 9.2973179,5.844602 c 0.011913,-0.00153 0.023551,-0.00382 0.035495,-0.00534 0.065847,-0.00824 0.1325886,-0.015492 0.1995563,-0.021674 4.038e-4,-3.82e-5 6.06e-4,3.81e-5 0.00122,0 0.03954,-0.00382 0.079578,-0.00611 0.1194963,-0.00908 C 9.8155249,5.796374 9.9806392,5.7892 10.148429,5.7892 h 4.04e-4 4.04e-4 c 0.0695,7.6e-6 0.138804,7.631e-4 0.207446,0.00305 0,0 4.04e-4,0 4.04e-4,0 0.06878,0.00153 0.13725,0.00534 0.205078,0.00946 0,0 4.05e-4,0 4.05e-4,0 0.02755,0.00153 0.05463,0.00458 0.08203,0.00611 0.107946,0.00809 0.215086,0.017629 0.320238,0.030756 0.01195,0.00153 0.02358,0.00305 0.0355,0.00534 0.0538,0.00687 0.107135,0.014195 0.160119,0.022514 0.06471,0.010226 0.129046,0.021369 0.192458,0.033503 0.06279,0.011906 0.124719,0.024879 0.186149,0.038617 0.04487,0.010074 0.08918,0.020987 0.133299,0.031977 0.01682,0.00458 0.03378,0.00786 0.05048,0.012211 0.03672,0.00954 0.0727,0.019843 0.108851,0.029993 0.02363,0.00687 0.04761,0.012821 0.07099,0.01969 0.05154,0.015187 0.102331,0.031214 0.152626,0.047698 0.0068,0.00229 0.01377,0.00458 0.02051,0.00611 0.02376,0.00786 0.04674,0.016256 0.0702,0.024422 0.03433,0.011905 0.06884,0.023735 0.102539,0.036251 0.0544,0.020224 0.107837,0.040982 0.160513,0.062733 6.06e-4,1.984e-4 0.0012,4.045e-4 0.002,7.632e-4 6.05e-4,4.045e-4 9.92e-4,7.631e-4 0.002,7.631e-4 0.05254,0.021674 0.104257,0.044264 0.154992,0.067465 0.02798,0.012745 0.05501,0.026253 0.08242,0.039456 0.02458,0.011829 0.04962,0.023277 0.07375,0.035488 0.01947,0.00984 0.03801,0.0203 0.05718,0.030374 0.02917,0.015263 0.05871,0.030756 0.08716,0.046554 0.04761,0.026406 0.09411,0.053499 0.139612,0.08124 0.04579,0.027932 0.09051,0.056322 0.134089,0.085582 0.03691,0.024803 0.0728,0.050446 0.108062,0.076089 0.0066,0.00458 0.01357,0.00939 0.02011,0.014195 0.04099,0.030298 0.08087,0.061207 0.119496,0.09268 0.03895,0.031748 0.07633,0.064107 0.112794,0.097022 0.0364,0.032817 0.07184,0.066625 0.105693,0.1005635 0.03393,0.034037 0.06614,0.068228 0.09741,0.1033261 0.09365,0.105051 0.175321,0.2145665 0.243727,0.3281268 0.02148,0.035717 0.04148,0.071967 0.06034,0.1084547 0.0012,0.00229 0.0029,0.00458 0.004,0.00687 0.01822,0.035564 0.03446,0.071891 0.05009,0.1080578 0.0012,0.00305 0.0034,0.00611 0.0047,0.00946 0.0167,0.03938 0.03177,0.079385 0.04536,0.1194978 0.01331,0.039227 0.02488,0.078432 0.0351,0.1183149 2.01e-4,7.632e-4 8.39e-4,0.00229 0.0012,0.00305 0.0089,0.035106 0.01601,0.070823 0.02248,0.1064858 9.92e-4,0.00611 0.0029,0.012058 0.004,0.018163 0.0065,0.038082 0.01135,0.076562 0.01498,0.115163 4.04e-4,0.00305 8.4e-4,0.00687 0.0012,0.00985 0.0037,0.041975 0.0057,0.084102 0.006,0.1265953 10e-6,0.00229 0,0.00534 0,0.00786 0,1.0344599 -1.049952,1.957878 -2.629339,2.320142 -0.02322,0.0319 -0.124003,0.235447 -0.199952,0.539122 -0.07873,0.314794 -0.153678,0.729007 -0.220854,1.195367 -0.02513,0.174477 -0.0479,0.36176 -0.07099,0.548585 A 5.1183864,4.6884697 0 0 0 15.267329,8.2600343 C 15.267312,6.4789992 12.982587,5.0338752 10.160092,5.0300593 Z M 5.6728422,14.112208 c -0.217114,0 -0.392016,0.174896 -0.392016,0.392012 v 0.339559 H 9.4151254 C 9.3952142,14.599662 9.377478,14.359911 9.354392,14.112208 Z m 5.2712988,0 c -0.02309,0.247695 -0.04072,0.487462 -0.06073,0.731571 h 4.133512 V 14.50422 c 0,-0.217116 -0.174902,-0.392012 -0.392016,-0.392012 z m -5.6633148,2.238504 v 3.251268 c 0,0.217131 0.1748982,0.392035 0.392016,0.39202 h 8.9520588 c 0.217118,0 0.392016,-0.174889 0.392016,-0.39202 V 16.350712 Z M 59.281171,7.2193851 57.623206,7.4935784 V 18.030673 h 2.808993 c 0.566328,0 1.073358,-0.08673 1.520945,-0.260319 0.447632,-0.173561 0.826686,-0.424783 1.137275,-0.75365 0.319716,-0.328844 0.561818,-0.721635 0.726259,-1.178379 0.173538,-0.465895 0.260334,-0.986563 0.260334,-1.562073 0,-0.557224 -0.07304,-1.064216 -0.21926,-1.520984 -0.137028,-0.465872 -0.337949,-0.863218 -0.602839,-1.192085 -0.264928,-0.328845 -0.598359,-0.580066 -1.0003,-0.753627 -0.392806,-0.182689 -0.840446,-0.274018 -1.342843,-0.274018 -0.33801,0 -0.648584,0.04098 -0.931798,0.123306 -0.274033,0.08216 -0.506984,0.173576 -0.698801,0.274071 z m 1.356573,4.7411589 c 0.602893,0 1.041359,0.205546 1.3154,0.616622 0.283183,0.411069 0.424767,0.96827 0.424767,1.67165 0,0.7308 -0.173515,1.306341 -0.520637,1.726537 -0.347138,0.411076 -0.826739,0.616614 -1.438767,0.616614 -0.264921,0 -0.493308,-0.0092 -0.685132,-0.0274 -0.182704,-0.0274 -0.333454,-0.05472 -0.452204,-0.08231 v -4.124385 c 0.146171,-0.100449 0.338026,-0.191809 0.575525,-0.274025 0.246651,-0.08231 0.506985,-0.123314 0.781048,-0.123314 z m -7.104336,-1.425006 c -0.300759,0.0015 -0.573235,0.02335 -0.815185,0.06189 l -0.215306,1.302014 c 0.243948,0.02847 0.531444,0.04144 0.866088,0.03366 0.283168,0 0.516127,0.03656 0.698816,0.109592 0.191824,0.07304 0.342566,0.178132 0.452188,0.315145 0.118735,0.127877 0.200936,0.278627 0.246628,0.452188 0.04571,0.173561 0.06846,0.356273 0.06846,0.548089 v 0.274025 c -0.228372,-0.05487 -0.443022,-0.0913 -0.643997,-0.109591 -0.200951,-0.0274 -0.392813,-0.04098 -0.575525,-0.04098 -0.392805,0 -0.771874,0.04098 -1.137274,0.123314 -0.35625,0.07304 -0.67138,0.200967 -0.945436,0.383655 -0.274056,0.173569 -0.493293,0.401956 -0.657726,0.685117 -0.155306,0.283191 -0.232959,0.630298 -0.232959,1.041374 0,0.429339 0.06846,0.790168 0.205568,1.082479 0.146171,0.292311 0.342528,0.529872 0.589156,0.712568 0.255762,0.182697 0.561803,0.315146 0.91806,0.397362 0.356288,0.08231 0.749056,0.123306 1.178395,0.123306 h 2.904939 v -4.658774 c 0,-0.420212 -0.05014,-0.80389 -0.15075,-1.151027 -0.0913,-0.356235 -0.251207,-0.657666 -0.479594,-0.904316 C 55.588717,11.07 55.291796,10.878131 54.917284,10.741103 54.542733,10.604075 54.08144,10.53561 53.533328,10.53561 Z m 0.328905,4.138076 c 0.21011,0 0.401918,0.01374 0.575479,0.04098 0.173554,0.02747 0.306018,0.05487 0.397347,0.08231 v 1.836083 c -0.264921,0.05487 -0.653117,0.08216 -1.164695,0.08216 -0.420189,0 -0.753627,-0.07319 -1.000278,-0.219244 C 52.423554,16.3406 52.30021,16.06659 52.30021,15.6738 c 0,-0.200967 0.04571,-0.365446 0.137028,-0.493324 0.0913,-0.137028 0.210125,-0.242079 0.35628,-0.31516 0.155291,-0.07304 0.324242,-0.123314 0.506954,-0.15075 0.191839,-0.0274 0.379137,-0.04098 0.561841,-0.04098 z M 50.646808,7.2589557 c -0.973849,0 -1.702031,0.2639133 -2.184411,0.7918086 -0.482395,0.5187983 -0.730289,1.2378611 -0.723565,2.1570967 v 7.822812 h 1.651967 v -6.097496 h 2.03157 l 0.231165,-1.397639 h -2.262735 v -0.300416 c 0,-0.227525 0.02267,-0.436864 0.06815,-0.628001 0.04541,-0.2002188 0.122848,-0.3685827 0.232112,-0.505107 0.109279,-0.13657 0.254832,-0.2412088 0.436864,-0.3140309 0.18204,-0.082003 0.405032,-0.1228558 0.668976,-0.1228558 0.236652,0 0.455119,0.022743 0.655353,0.068151 0.178201,0.038693 0.336407,0.08749 0.475053,0.1460182 L 52.156405,7.4937921 C 52.024567,7.4540307 51.858683,7.4122469 51.657022,7.3680438 51.365764,7.2951607 51.029013,7.2589099 50.646724,7.2589099 Z m 2.253349,3.2765823 -0.231151,1.397639 h 0.871667 l 0.164419,-1.397639 z m -9.224633,0 c -0.418693,0 -0.82822,0.082 -1.228696,0.245727 -0.400483,0.154726 -0.755428,0.391333 -1.064887,0.709889 -0.30946,0.30946 -0.559781,0.700861 -0.750918,1.174144 -0.182025,0.473282 -0.273064,1.02392 -0.273064,1.651921 0,0.537 0.07288,1.033056 0.218482,1.488121 0.145568,0.445984 0.368613,0.83734 0.668975,1.174083 0.300332,0.327676 0.682568,0.58711 1.146754,0.778247 0.464185,0.182025 1.010343,0.273003 1.638344,0.273003 0.24575,0 0.486921,-0.01374 0.723573,-0.04083 0.236638,-0.02732 0.455051,-0.06373 0.655292,-0.109287 0.171074,-0.02969 0.322915,-0.06266 0.457554,-0.09846 l 0.252374,-1.526135 c -0.191122,0.082 -0.455111,0.159297 -0.791854,0.232104 -0.327677,0.07288 -0.691711,0.109134 -1.092179,0.109134 -0.682614,0 -1.205983,-0.154688 -1.570041,-0.46414 C 42.310258,15.81451 42.11007,15.368503 42.06457,14.795115 h 4.710029 c 0.0091,-0.091 0.01374,-0.191122 0.01374,-0.300347 0.0091,-0.118284 0.01374,-0.223007 0.01374,-0.314016 0,-1.210516 -0.277574,-2.120647 -0.832768,-2.730462 -0.546097,-0.609807 -1.310653,-0.91471 -2.293629,-0.91471 z m 0.01374,1.378857 c 0.245711,0 0.455081,0.04541 0.628001,0.13657 0.182024,0.082 0.332248,0.200219 0.450562,0.354945 0.12742,0.145713 0.222985,0.323113 0.286717,0.532452 0.06373,0.200218 0.09557,0.414159 0.09557,0.641692 h -3.071822 c 0.02725,-0.209339 0.07728,-0.414129 0.150139,-0.614378 0.07288,-0.200227 0.172905,-0.377695 0.300332,-0.532437 0.136562,-0.154726 0.300385,-0.27762 0.491522,-0.368636 0.191137,-0.100136 0.414084,-0.150131 0.66893,-0.150131 z m -4.135497,6.116293 -2.921629,-0.01374 c -0.573412,0 -1.055783,-0.08185 -1.447132,-0.245735 -0.382289,-0.163838 -0.691748,-0.391371 -0.928386,-0.682621 -0.227548,-0.29125 -0.391363,-0.637121 -0.491492,-1.037589 -0.100144,-0.409573 -0.150139,-0.855556 -0.150139,-1.337936 V 10.53542 h 1.651944 v 3.918252 c 0,0.764532 0.109279,1.310629 0.327639,1.638283 0.227555,0.327661 0.618919,0.4915 1.17412,0.4915 0.20025,0 0.409581,-0.0092 0.628016,-0.02732 0.227548,-0.01816 0.395928,-0.04098 0.505138,-0.0683 V 10.53537 h 1.651959 z m -14.173731,-7.49515 c -0.828253,0 -1.483577,0.191076 -1.965958,0.573342 -0.482395,0.373177 -0.723574,0.887473 -0.723574,1.542795 0,0.336743 0.04999,0.623399 0.150137,0.860044 0.109283,0.227541 0.254847,0.423264 0.436871,0.587095 0.182037,0.163846 0.395976,0.309444 0.641689,0.436871 0.254847,0.118277 0.532436,0.232089 0.8328,0.341315 0.491482,0.182025 0.841898,0.350388 1.051234,0.505114 0.218434,0.154719 0.327674,0.350381 0.327674,0.587049 0,0.254832 -0.100143,0.436895 -0.300407,0.54612 -0.200206,0.100144 -0.518719,0.15014 -0.955606,0.15014 -0.436868,0 -0.82827,-0.04541 -1.174145,-0.136571 -0.336742,-0.09099 -0.628005,-0.186596 -0.873738,-0.286716 l -0.231603,1.400379 c 0.159951,0.06037 0.409663,0.135043 0.750398,0.224274 0.382288,0.109286 0.887382,0.163807 1.515387,0.163807 0.937467,0 1.656497,-0.172935 2.157094,-0.518798 0.509696,-0.354968 0.764543,-0.873735 0.764543,-1.556357 0,-0.318556 -0.041,-0.591605 -0.122851,-0.819153 -0.082,-0.227532 -0.213893,-0.427751 -0.395913,-0.600679 -0.172937,-0.182032 -0.395928,-0.341314 -0.668979,-0.477839 -0.273042,-0.14556 -0.605217,-0.291242 -0.99659,-0.436871 -0.236632,-0.082 -0.436913,-0.159282 -0.600735,-0.232104 -0.163822,-0.082 -0.295788,-0.159298 -0.395897,-0.232105 -0.100142,-0.082 -0.172955,-0.168348 -0.218467,-0.259372 -0.03643,-0.091 -0.05457,-0.195716 -0.05457,-0.314023 0,-0.236645 0.104712,-0.409588 0.314018,-0.518814 0.209363,-0.118277 0.482398,-0.177445 0.819156,-0.177445 0.373155,0 0.700815,0.0364 0.982948,0.109133 0.282147,0.06373 0.514268,0.13657 0.696305,0.218406 l 4.2e-5,-2.14e-4 0.225647,-1.364487 c -0.188269,-0.06388 -0.45007,-0.127885 -0.785458,-0.191702 -0.382256,-0.082 -0.782739,-0.122848 -1.201411,-0.122848 z M 21.767104,7.2588947 20.046957,7.5433755 V 18.030673 h 1.429253 l 0.290894,-1.759064 z m 8.785034,3.2766433 c -0.828227,0 -1.483575,0.191076 -1.965959,0.573342 -0.482378,0.373177 -0.723587,0.887473 -0.723587,1.542795 0,0.336743 0.05,0.623399 0.150134,0.860044 0.109283,0.227541 0.254847,0.423264 0.436884,0.587095 0.18204,0.163846 0.39596,0.309444 0.641693,0.436871 0.254847,0.118277 0.532435,0.232089 0.83277,0.341315 0.491493,0.182025 0.841924,0.350388 1.051261,0.505114 0.21842,0.154719 0.327669,0.350381 0.327669,0.587049 0,0.254832 -0.100136,0.436895 -0.30034,0.54612 -0.200232,0.100144 -0.518795,0.15014 -0.955679,0.15014 -0.436887,0 -0.828273,-0.04541 -1.174148,-0.136571 -0.210491,-0.05686 -0.403183,-0.115536 -0.578098,-0.176003 -0.07043,0.479808 -0.268812,0.916206 -0.581126,1.262275 l -0.0013,0.0061 c 0.154721,0.06372 0.423239,0.14556 0.805495,0.245742 0.382288,0.109286 0.887399,0.163815 1.515404,0.163815 0.937465,0 1.656512,-0.172935 2.157093,-0.518813 0.509679,-0.35496 0.764548,-0.873743 0.764548,-1.556372 0,-0.318542 -0.04098,-0.59159 -0.122848,-0.819131 -0.082,-0.227548 -0.213879,-0.427751 -0.395904,-0.600686 -0.172951,-0.182033 -0.395927,-0.3413 -0.668976,-0.477839 -0.273071,-0.145568 -0.60522,-0.291235 -0.996604,-0.436872 -0.236654,-0.082 -0.436919,-0.159282 -0.600741,-0.232104 -0.163824,-0.082 -0.295787,-0.159282 -0.3959,-0.232089 -0.100139,-0.08186 -0.172953,-0.168371 -0.218464,-0.25938 -0.03643,-0.09099 -0.05457,-0.195723 -0.05457,-0.314031 0,-0.236652 0.104709,-0.409588 0.314016,-0.518813 0.209336,-0.118277 0.482381,-0.177431 0.819152,-0.177431 0.373155,0 0.700801,0.03648 0.982946,0.109134 0.282161,0.06373 0.51428,0.13657 0.696313,0.218398 l 0.22567,-1.364655 c -0.188267,-0.06388 -0.449998,-0.127725 -0.785459,-0.191694 -0.382258,-0.082 -0.782727,-0.122856 -1.201394,-0.122856 z" />
</svg>
