<?xml version="1.0" encoding="UTF-8" standalone="no"?>
<svg
   id="svg864"
   version="1.1"
   viewBox="0 0 41.926468 15.17933"
   height="15.17933mm"
   width="41.926468mm"
   xmlns="http://www.w3.org/2000/svg"
   xmlns:svg="http://www.w3.org/2000/svg"
   xmlns:rdf="http://www.w3.org/1999/02/22-rdf-syntax-ns#"
   xmlns:cc="http://creativecommons.org/ns#"
   xmlns:dc="http://purl.org/dc/elements/1.1/">
  <path
     id="path1108"
     style="opacity:0.99;fill:#ffa600;fill-opacity:1;stroke-width:0.229879"
     d="m 6.1559678,4.1741796 c -1.0752517,0 -1.9470916,0.4971095 -1.9470916,1.1105377 0,0.4602783 0.490943,0.8551923 1.1902215,1.0236784 0.2202359,0.2352489 0.3841952,1.6511231 0.4747492,2.8456214 H 3.2021876 V 9.769228 H 9.10951 V 9.1540171 H 6.4378512 C 6.5284084,7.9595188 6.692603,6.5436446 6.9128389,6.3083957 7.6121178,6.1399096 8.1028219,5.7449956 8.1028219,5.2847173 c 0,-0.6134282 -0.8716037,-1.1105377 -1.9468541,-1.1105377 z" />
  <path
     id="path1112"
     style="opacity:0.99;fill:#ffffff;fill-opacity:1;stroke:none;stroke-width:0.459759"
     d="M 6.1490285,3.0500004 C 4.4364945,3.0523157 3.0500037,3.9291417 3.05,5.0097755 a 3.1055542,2.8447045 0 0 0 0,0.00185 3.1055542,2.8447045 0 0 0 2.5429216,2.795371 C 5.5789142,7.6936436 5.5648606,7.5800106 5.5496123,7.4741477 5.5088545,7.1911858 5.4636198,6.9398597 5.4158495,6.74886 5.3698129,6.5647876 5.3084548,6.4415231 5.2942905,6.4219962 4.3358469,6.202241 3.6987128,5.641735 3.6987128,5.0140171 c 0,-0.00139 0,-0.00324 0,-0.00477 1.227e-4,-0.025792 0.0013,-0.051348 0.00361,-0.076811 1.222e-4,-0.00185 5.093e-4,-0.00417 7.409e-4,-0.00597 0.00222,-0.02343 0.00514,-0.046745 0.00909,-0.06987 6.019e-4,-0.0037 0.00176,-0.00732 0.00241,-0.011021 0.00394,-0.021624 0.00823,-0.043295 0.013642,-0.06461 6.11e-5,-2.454e-4 2.449e-4,-4.631e-4 2.449e-4,-4.631e-4 0.012572,-0.049371 0.02907,-0.097829 0.049293,-0.1454863 7.409e-4,-0.00185 0.00204,-0.0037 0.00287,-0.00597 0.00947,-0.021995 0.019351,-0.043805 0.03039,-0.065327 7.409e-4,-0.00139 0.00176,-0.00278 0.00241,-0.00417 0.011456,-0.022134 0.023565,-0.043897 0.036609,-0.065564 0.055361,-0.091911 0.1247712,-0.1795577 0.2069843,-0.2620227 0.020532,-0.020606 0.041809,-0.040841 0.063891,-0.06078 0.021875,-0.019772 0.04462,-0.039313 0.067957,-0.058386 0.00651,-0.00533 0.013484,-0.010326 0.020101,-0.015559 0.017438,-0.013845 0.034683,-0.027691 0.052883,-0.041165 0.00431,-0.00324 0.00908,-0.0062 0.013401,-0.00935 0.021106,-0.015373 0.042295,-0.030654 0.064369,-0.045472 0.02644,-0.017735 0.053575,-0.03496 0.081358,-0.051922 0.027603,-0.016855 0.055822,-0.033479 0.084709,-0.049533 0.00777,-0.00417 0.016073,-0.0082 0.023926,-0.012456 0.021425,-0.011576 0.042763,-0.023292 0.064848,-0.034451 0.013572,-0.00685 0.027579,-0.013197 0.041397,-0.019865 0.01698,-0.0082 0.033868,-0.01667 0.051208,-0.024634 0.024296,-0.011113 0.049209,-0.021764 0.07418,-0.032321 0.00714,-0.00278 0.0141,-0.00611 0.021296,-0.00908 0.025329,-0.010465 0.051306,-0.020467 0.07729,-0.030376 0.00763,-0.00278 0.014813,-0.00602 0.02249,-0.00884 0.016498,-0.00611 0.033511,-0.011808 0.050251,-0.017689 0.017999,-0.00634 0.035789,-0.012827 0.054078,-0.018893 0.00407,-0.00139 0.00834,-0.00278 0.012442,-0.0037 0.030506,-0.010002 0.061339,-0.019726 0.092604,-0.028941 0.014174,-0.00417 0.028737,-0.00792 0.043073,-0.011947 0.021944,-0.00611 0.043758,-0.01241 0.066044,-0.018198 0.00695,-0.00185 0.014063,-0.00324 0.021055,-0.005 0.030029,-0.00755 0.060077,-0.015188 0.090692,-0.021995 0.03716,-0.00829 0.074728,-0.015975 0.1127045,-0.023199 0.038475,-0.00732 0.077271,-0.014123 0.1165336,-0.020328 0.03215,-0.00505 0.064748,-0.0094 0.09739,-0.013614 0.00723,-9.261e-4 0.01429,-0.00232 0.021536,-0.00324 0.039952,-0.005 0.080448,-0.0094 0.1210798,-0.013151 2.45e-4,-2.32e-5 3.677e-4,2.31e-5 7.409e-4,0 0.023991,-0.00232 0.048284,-0.0037 0.072504,-0.00551 0.098559,-0.00736 0.1987414,-0.011715 0.3005476,-0.011715 h 2.449e-4 2.45e-4 c 0.042165,4.7e-6 0.084218,4.631e-4 0.1258668,0.00185 0,0 2.45e-4,0 2.45e-4,0 0.04173,9.262e-4 0.083276,0.00324 0.1244304,0.00574 0,0 2.454e-4,0 2.454e-4,0 0.016716,9.261e-4 0.033145,0.00278 0.049772,0.0037 0.065495,0.00491 0.1305024,0.010697 0.1943026,0.018661 0.00725,9.261e-4 0.014308,0.00185 0.021537,0.00324 0.032641,0.00417 0.065003,0.00861 0.097151,0.01366 0.039262,0.0062 0.078298,0.012965 0.1167725,0.020328 0.038095,0.00722 0.075673,0.015096 0.1129449,0.02343 0.027227,0.00611 0.054113,0.012734 0.080878,0.019402 0.010206,0.00278 0.020499,0.00477 0.030631,0.00741 0.022277,0.00579 0.04411,0.012039 0.066045,0.018198 0.014336,0.00417 0.02889,0.00778 0.043073,0.011947 0.031275,0.00921 0.062089,0.018939 0.092605,0.028941 0.00412,0.00139 0.00836,0.00278 0.012442,0.0037 0.014415,0.00477 0.028357,0.00986 0.042592,0.014818 0.020828,0.00722 0.041767,0.014401 0.062215,0.021995 0.033006,0.012271 0.06543,0.024866 0.09739,0.038063 3.677e-4,1.204e-4 7.409e-4,2.454e-4 0.0012,4.631e-4 3.672e-4,2.454e-4 6.019e-4,4.63e-4 0.0012,4.63e-4 0.031876,0.013151 0.063257,0.026857 0.09404,0.040934 0.01698,0.00773 0.033377,0.015929 0.050011,0.02394 0.014915,0.00718 0.030108,0.014123 0.044749,0.021532 0.011812,0.00597 0.023065,0.012317 0.034696,0.018429 0.017698,0.00926 0.035623,0.018661 0.052882,0.028246 0.028885,0.016022 0.057099,0.03246 0.084709,0.049292 0.027783,0.016948 0.054919,0.034173 0.081358,0.051927 0.022393,0.015049 0.044171,0.030608 0.065566,0.046166 0.00398,0.00278 0.00823,0.0057 0.012201,0.00861 0.024871,0.018383 0.049069,0.037137 0.072504,0.056233 0.02363,0.019263 0.046314,0.038896 0.068437,0.058868 0.022083,0.019911 0.043592,0.040424 0.064129,0.061016 0.020587,0.020652 0.040133,0.041397 0.059105,0.062693 0.056824,0.063739 0.1063755,0.1301871 0.1478803,0.1990892 0.013035,0.021671 0.025167,0.043666 0.036609,0.065804 7.409e-4,0.00139 0.00176,0.00278 0.00241,0.00417 0.011053,0.021578 0.020907,0.04362 0.03039,0.065564 7.409e-4,0.00185 0.00208,0.0037 0.00287,0.00574 0.010131,0.023893 0.019277,0.048167 0.027519,0.072505 0.00808,0.023801 0.015095,0.047588 0.021296,0.071787 1.223e-4,4.631e-4 5.094e-4,0.00139 7.409e-4,0.00185 0.0054,0.0213 0.00971,0.042971 0.013642,0.06461 6.02e-4,0.0037 0.00176,0.00732 0.00241,0.011021 0.00394,0.023106 0.00689,0.046453 0.00909,0.069875 2.449e-4,0.00185 5.093e-4,0.00417 7.409e-4,0.00597 0.00222,0.025468 0.00347,0.051028 0.00361,0.076811 6e-6,0.00139 0,0.00324 0,0.00477 0,0.6276532 -0.6370531,1.1879322 -1.5953379,1.4077338 C 7.003786,6.4412031 6.942634,6.5647033 6.8965519,6.7489563 6.8487829,6.939956 6.8033089,7.1912775 6.7625502,7.4742393 6.7473022,7.5801023 6.7334842,7.6937352 6.7194772,7.8070904 A 3.1055542,2.8447045 0 0 0 9.2614462,5.0098079 C 9.2614355,3.9291741 7.8751906,3.0523527 6.1626566,3.0500375 Z M 3.4400413,8.5605835 c -0.1317328,0 -0.2378537,0.1061176 -0.2378537,0.2378513 V 9.0044606 H 5.7106521 C 5.698571,8.8563441 5.6878097,8.7108763 5.6738024,8.5605835 Z m 3.1983327,0 C 6.624367,8.7108717 6.61367,8.8563487 6.601524,9.0044606 H 9.1095109 V 8.7984348 c 0,-0.1317337 -0.1061208,-0.2378513 -0.2378536,-0.2378513 z M 3.2021876,9.9187846 v 1.9726894 c 0,0.131743 0.1061186,0.237865 0.2378537,0.237856 h 5.4316151 c 0.131735,0 0.2378536,-0.106113 0.2378536,-0.237856 V 9.9187846 Z M 35.966615,4.3783994 34.960653,4.5447648 v 6.3933272 h 1.704342 c 0.343617,0 0.651255,-0.05262 0.922826,-0.157947 0.271598,-0.105308 0.501587,-0.257735 0.690035,-0.457273 0.193987,-0.199525 0.340881,-0.4378486 0.440654,-0.7149759 0.105294,-0.2826794 0.157957,-0.598592 0.157957,-0.9477796 0,-0.3380928 -0.04431,-0.6457075 -0.133035,-0.9228488 C 38.660291,7.4546023 38.538383,7.2135142 38.377662,7.0139758 38.216918,6.8144513 38.014611,6.6620239 37.770735,6.5567166 37.532403,6.4458712 37.260799,6.3904578 36.955972,6.3904578 c -0.205086,0 -0.393525,0.024866 -0.565363,0.074815 -0.166268,0.049848 -0.30761,0.1053165 -0.423994,0.1662912 z m 0.823094,2.8766737 c 0.365802,0 0.631839,0.1247138 0.798112,0.3741322 0.17182,0.2494137 0.257725,0.5874926 0.257725,1.0142645 0,0.4434094 -0.105279,0.7926154 -0.315894,1.0475673 -0.210624,0.2494183 -0.50162,0.3741279 -0.872964,0.3741279 -0.160739,0 -0.299312,-0.0056 -0.415701,-0.01662 -0.110854,-0.01662 -0.202321,-0.0332 -0.274372,-0.04994 V 7.4961519 c 0.08869,-0.060947 0.205095,-0.1163789 0.349197,-0.1662634 0.149654,-0.04994 0.30761,-0.07482 0.473897,-0.07482 z M 32.47919,6.3904578 c -0.182484,9.261e-4 -0.347808,0.014169 -0.494609,0.037553 l -0.130636,0.7899899 c 0.148014,0.017272 0.32245,0.025144 0.525494,0.020421 0.171811,0 0.313158,0.02218 0.424003,0.066494 0.116388,0.044314 0.20785,0.1080809 0.274363,0.1912127 0.07204,0.077589 0.121917,0.1690556 0.14964,0.2743629 0.02774,0.1053073 0.04154,0.2161666 0.04154,0.3325501 v 0.1662635 c -0.138564,-0.033293 -0.268802,-0.055395 -0.390742,-0.066494 -0.121926,-0.016624 -0.238338,-0.024866 -0.349197,-0.024866 -0.238333,0 -0.468331,0.024866 -0.690035,0.07482 -0.216153,0.044314 -0.407357,0.1219355 -0.573639,0.2327809 -0.166282,0.1053119 -0.299303,0.2438849 -0.399072,0.4156911 -0.09423,0.1718247 -0.141346,0.38243 -0.141346,0.6318484 0,0.2604992 0.04153,0.4794307 0.124727,0.6567887 0.08869,0.177358 0.207827,0.321497 0.357467,0.432347 0.155183,0.11085 0.340871,0.191213 0.557029,0.241097 0.216176,0.04994 0.454485,0.07482 0.714984,0.07482 h 1.762557 V 8.1114462 c 0,-0.2549611 -0.03042,-0.4877559 -0.09147,-0.6983797 C 34.094852,7.1969231 33.997829,7.0140314 33.859256,6.8643776 33.726235,6.7147377 33.54608,6.5983218 33.318847,6.5151808 33.09159,6.4320398 32.811703,6.3904994 32.479139,6.3904994 Z m 0.199561,2.510756 c 0.127483,0 0.243862,0.00833 0.349169,0.024866 0.105303,0.01667 0.185675,0.033293 0.241088,0.04994 v 1.1140342 c -0.160739,0.03329 -0.396275,0.04985 -0.706673,0.04985 -0.254947,0 -0.457259,-0.04441 -0.606913,-0.133025 -0.14963,-0.094227 -0.224469,-0.2604812 -0.224469,-0.4988048 0,-0.1219355 0.02774,-0.2217325 0.08314,-0.2993215 0.0554,-0.083141 0.127492,-0.1468801 0.216172,-0.1912219 0.09422,-0.044314 0.196732,-0.07482 0.307591,-0.091467 0.116397,-0.016624 0.23004,-0.024866 0.340894,-0.024866 z M 30.72776,4.4024087 c -0.590877,0 -1.032698,0.160128 -1.32538,0.4804257 -0.29269,0.3147782 -0.443099,0.7510658 -0.439019,1.3088073 v 4.7464503 h 1.002322 V 7.2384681 h 1.232645 L 31.338586,6.3904578 H 29.965683 V 6.208182 c 0,-0.1380497 0.01375,-0.2650649 0.04135,-0.3810363 0.02755,-0.1214817 0.07454,-0.2236356 0.140832,-0.306471 0.0663,-0.082863 0.154618,-0.1463522 0.265065,-0.1905366 0.110452,-0.049755 0.245751,-0.074542 0.405898,-0.074542 0.143588,0 0.276141,0.013799 0.397632,0.041351 0.108122,0.023477 0.204113,0.053084 0.288236,0.088596 L 31.6437,4.5448944 c -0.07999,-0.024125 -0.180641,-0.049477 -0.302998,-0.076297 -0.176719,-0.044221 -0.381041,-0.066216 -0.612993,-0.066216 z m 1.367208,1.9880491 -0.140249,0.8480103 h 0.528879 l 0.09976,-0.8480103 z m -5.596998,0 c -0.25404,0 -0.502518,0.049755 -0.745505,0.1490934 -0.242991,0.093879 -0.458352,0.2374392 -0.646115,0.4307218 -0.187763,0.187763 -0.339644,0.4252438 -0.455615,0.7124055 -0.110443,0.2871617 -0.16568,0.6212584 -0.16568,1.0022947 0,0.3258219 0.04422,0.6268011 0.132562,0.9029098 0.08832,0.2705983 0.223655,0.508051 0.405898,0.712368 0.182225,0.198816 0.414144,0.356226 0.695787,0.472198 0.281642,0.110442 0.61302,0.165643 0.994057,0.165643 0.149107,0 0.295436,-0.0083 0.439024,-0.02477 0.143578,-0.01658 0.276099,-0.03866 0.397595,-0.06631 0.103798,-0.01801 0.195926,-0.03802 0.277618,-0.05974 l 0.153127,-0.925974 c -0.115962,0.049755 -0.276137,0.096653 -0.480454,0.140828 -0.198816,0.04422 -0.419692,0.06622 -0.662674,0.06622 -0.414172,0 -0.731724,-0.093856 -0.952613,-0.2816139 -0.21538,-0.1932779 -0.336843,-0.4638901 -0.36445,-0.8117904 h 2.857786 c 0.0055,-0.055214 0.0083,-0.1159621 0.0083,-0.1822341 0.0055,-0.071768 0.0083,-0.1353084 0.0083,-0.1905274 0,-0.7344746 -0.168417,-1.2866919 -0.505278,-1.6566937 -0.331342,-0.369997 -0.795232,-0.5549956 -1.391647,-0.5549956 z m 0.0083,0.8366146 c 0.149084,0 0.276118,0.027552 0.381036,0.082863 0.110443,0.049755 0.20159,0.1214817 0.273377,0.2153609 0.07731,0.088411 0.135294,0.196047 0.173964,0.3230621 0.03866,0.1214817 0.05798,0.2512891 0.05798,0.3893435 h -1.863812 c 0.01653,-0.1270152 0.04689,-0.2512706 0.0911,-0.3727708 0.04422,-0.1214864 0.104909,-0.2291645 0.182225,-0.3230529 0.08286,-0.093879 0.182257,-0.1684444 0.298229,-0.223668 0.115971,-0.060757 0.251242,-0.091092 0.405869,-0.091092 z m -2.509191,3.7110286 -1.772684,-0.0083 c -0.347914,0 -0.64059,-0.04966 -0.878039,-0.149098 -0.231952,-0.09941 -0.419715,-0.237462 -0.563293,-0.414177 -0.138064,-0.176714 -0.237458,-0.3865697 -0.298211,-0.6295516 -0.06076,-0.2485061 -0.0911,-0.5191045 -0.0911,-0.8117858 V 6.3903883 H 21.3961 v 2.3773786 c 0,0.4638762 0.0663,0.7952177 0.198793,0.9940199 0.138068,0.1988067 0.375525,0.2982152 0.712391,0.2982152 0.1215,0 0.248511,-0.0056 0.381046,-0.01658 0.138063,-0.01102 0.240226,-0.02487 0.306489,-0.04144 V 6.3903559 h 1.002318 z M 15.397276,6.3904578 c -0.502538,0 -0.900152,0.1159343 -1.192835,0.3478724 -0.29269,0.2264232 -0.439024,0.5384693 -0.439024,0.9360829 0,0.204317 0.03033,0.378244 0.0911,0.5218272 0.06631,0.1380589 0.154627,0.2568133 0.265069,0.3562166 0.11045,0.099413 0.240256,0.1877537 0.389342,0.2650695 0.154627,0.071764 0.323052,0.1408188 0.505297,0.2070908 0.298204,0.1104425 0.510817,0.2125965 0.63783,0.3064756 0.132534,0.093875 0.198815,0.2125918 0.198815,0.3561889 0,0.1546177 -0.06076,0.2650834 -0.182271,0.3313553 -0.121474,0.06076 -0.31473,0.0911 -0.579809,0.0911 -0.265067,0 -0.502548,-0.02755 -0.712406,-0.08286 -0.204316,-0.05521 -0.381039,-0.113216 -0.530136,-0.1739638 l -0.140524,0.8496728 c 0.09705,0.03663 0.248561,0.08194 0.4553,0.136077 0.231952,0.06631 0.538415,0.09939 0.919453,0.09939 0.568804,0 1.005071,-0.104927 1.308806,-0.314778 0.309256,-0.215374 0.463883,-0.530134 0.463883,-0.944311 0,-0.1932825 -0.02488,-0.3589533 -0.07454,-0.4970169 C 16.730866,9.0438848 16.650843,8.9224031 16.540403,8.8174801 16.435475,8.707033 16.300176,8.6103894 16.134503,8.527554 15.968837,8.4392361 15.767292,8.3508441 15.529828,8.2624845 c -0.143575,-0.049755 -0.265095,-0.096644 -0.364493,-0.140828 -0.0994,-0.049755 -0.179468,-0.096653 -0.240209,-0.140828 -0.06076,-0.049755 -0.104939,-0.1021447 -0.132553,-0.1573729 -0.0221,-0.055214 -0.03311,-0.1187497 -0.03311,-0.190532 0,-0.1435832 0.06353,-0.2485154 0.190529,-0.3147874 0.12703,-0.071764 0.292692,-0.1076642 0.497019,-0.1076642 0.226409,0 0.425215,0.022087 0.596398,0.066216 0.171191,0.038665 0.312029,0.082863 0.422479,0.1325162 l 2.6e-5,-1.296e-4 0.13691,-0.8278954 C 16.488595,6.5424222 16.329749,6.503586 16.126254,6.4648656 15.894322,6.4151106 15.651331,6.3903281 15.397304,6.3903281 Z M 13.205151,4.4023716 12.16146,4.5749789 v 6.3631131 h 0.867192 l 0.176499,-1.0673028 z m 5.330273,1.9880862 c -0.502522,0 -0.900151,0.1159343 -1.192835,0.3478724 -0.29268,0.2264232 -0.439033,0.5384693 -0.439033,0.9360829 0,0.204317 0.03034,0.378244 0.09109,0.5218272 0.06631,0.1380589 0.154627,0.2568133 0.265077,0.3562166 0.110452,0.099413 0.240247,0.1877537 0.389344,0.2650695 0.154627,0.071764 0.323053,0.1408188 0.505279,0.2070908 0.298211,0.1104425 0.510833,0.2125965 0.637847,0.3064756 0.132526,0.093875 0.198811,0.2125918 0.198811,0.3561889 0,0.1546177 -0.06076,0.2650834 -0.182229,0.3313553 -0.12149,0.06076 -0.314776,0.0911 -0.579853,0.0911 -0.265079,0 -0.502551,-0.02755 -0.712409,-0.08286 -0.127714,-0.034497 -0.244629,-0.070101 -0.350758,-0.1067889 -0.04273,0.2911209 -0.1631,0.5559029 -0.352594,0.7658789 l -7.88e-4,0.0037 c 0.09388,0.03866 0.256798,0.08832 0.48873,0.149103 0.231952,0.06631 0.538425,0.09939 0.919463,0.09939 0.568802,0 1.005081,-0.104927 1.308806,-0.314787 0.309245,-0.21537 0.463885,-0.530139 0.463885,-0.9443207 0,-0.1932733 -0.02486,-0.3589441 -0.07454,-0.497003 C 19.868968,9.0439867 19.788953,8.9225142 19.67851,8.8175866 19.573573,8.7071395 19.438283,8.6105051 19.272613,8.5276605 19.106928,8.439338 18.905398,8.3509552 18.667928,8.262591 18.524339,8.2128361 18.40283,8.1659474 18.303432,8.121763 18.204032,8.072008 18.123964,8.0251194 18.063222,7.9809442 18.002463,7.9312773 17.958283,7.8787857 17.93067,7.8235667 c -0.0221,-0.05521 -0.03311,-0.1187543 -0.03311,-0.1905366 0,-0.1435878 0.06353,-0.2485154 0.190528,-0.3147874 0.127013,-0.071764 0.292682,-0.107655 0.497016,-0.107655 0.22641,0 0.425207,0.022134 0.596397,0.066217 0.1712,0.038665 0.312037,0.082863 0.422484,0.1325116 L 19.740911,6.5813185 C 19.626681,6.5425611 19.467877,6.5038222 19.264338,6.4650091 19.032404,6.4152542 18.789422,6.390467 18.535398,6.390467 Z" />
</svg>
